<svg width="304" height="63" viewBox="0 0 304 63" fill="none" xmlns="http://www.w3.org/2000/svg">
<path d="M78.804 36.688H87.264V40H74.7V14.98H78.804V36.688ZM98.3641 36.328L103.98 20.164H108.336L100.776 40H95.8801L88.3561 20.164H92.7481L98.3641 36.328ZM144.802 19.84C146.362 19.84 147.754 20.164 148.978 20.812C150.226 21.46 151.198 22.42 151.894 23.692C152.614 24.964 152.974 26.5 152.974 28.3V40H148.906V28.912C148.906 27.136 148.462 25.78 147.574 24.844C146.686 23.884 145.474 23.404 143.938 23.404C142.402 23.404 141.178 23.884 140.266 24.844C139.378 25.78 138.934 27.136 138.934 28.912V40H134.866V28.912C134.866 27.136 134.422 25.78 133.534 24.844C132.646 23.884 131.434 23.404 129.898 23.404C128.362 23.404 127.138 23.884 126.226 24.844C125.338 25.78 124.894 27.136 124.894 28.912V40H120.79V20.164H124.894V22.432C125.566 21.616 126.418 20.98 127.45 20.524C128.482 20.068 129.586 19.84 130.762 19.84C132.346 19.84 133.762 20.176 135.01 20.848C136.258 21.52 137.218 22.492 137.89 23.764C138.49 22.564 139.426 21.616 140.698 20.92C141.97 20.2 143.338 19.84 144.802 19.84ZM166.8 40.324C164.928 40.324 163.236 39.904 161.724 39.064C160.212 38.2 159.024 37 158.16 35.464C157.296 33.904 156.864 32.104 156.864 30.064C156.864 28.048 157.308 26.26 158.196 24.7C159.084 23.14 160.296 21.94 161.832 21.1C163.368 20.26 165.084 19.84 166.98 19.84C168.876 19.84 170.592 20.26 172.128 21.1C173.664 21.94 174.876 23.14 175.764 24.7C176.652 26.26 177.096 28.048 177.096 30.064C177.096 32.08 176.64 33.868 175.728 35.428C174.816 36.988 173.568 38.2 171.984 39.064C170.424 39.904 168.696 40.324 166.8 40.324ZM166.8 36.76C167.856 36.76 168.84 36.508 169.752 36.004C170.688 35.5 171.444 34.744 172.02 33.736C172.596 32.728 172.884 31.504 172.884 30.064C172.884 28.624 172.608 27.412 172.056 26.428C171.504 25.42 170.772 24.664 169.86 24.16C168.948 23.656 167.964 23.404 166.908 23.404C165.852 23.404 164.868 23.656 163.956 24.16C163.068 24.664 162.36 25.42 161.832 26.428C161.304 27.412 161.04 28.624 161.04 30.064C161.04 32.2 161.58 33.856 162.66 35.032C163.764 36.184 165.144 36.76 166.8 36.76ZM191.161 19.84C192.721 19.84 194.113 20.164 195.337 20.812C196.585 21.46 197.557 22.42 198.253 23.692C198.949 24.964 199.297 26.5 199.297 28.3V40H195.229V28.912C195.229 27.136 194.785 25.78 193.897 24.844C193.009 23.884 191.797 23.404 190.261 23.404C188.725 23.404 187.501 23.884 186.589 24.844C185.701 25.78 185.257 27.136 185.257 28.912V40H181.153V20.164H185.257V22.432C185.929 21.616 186.781 20.98 187.813 20.524C188.869 20.068 189.985 19.84 191.161 19.84ZM222.712 29.596C222.712 30.34 222.664 31.012 222.568 31.612H207.412C207.532 33.196 208.12 34.468 209.176 35.428C210.232 36.388 211.528 36.868 213.064 36.868C215.272 36.868 216.832 35.944 217.744 34.096H222.172C221.572 35.92 220.48 37.42 218.896 38.596C217.336 39.748 215.392 40.324 213.064 40.324C211.168 40.324 209.464 39.904 207.952 39.064C206.464 38.2 205.288 37 204.424 35.464C203.584 33.904 203.164 32.104 203.164 30.064C203.164 28.024 203.572 26.236 204.388 24.7C205.228 23.14 206.392 21.94 207.88 21.1C209.392 20.26 211.12 19.84 213.064 19.84C214.936 19.84 216.604 20.248 218.068 21.064C219.532 21.88 220.672 23.032 221.488 24.52C222.304 25.984 222.712 27.676 222.712 29.596ZM218.428 28.3C218.404 26.788 217.864 25.576 216.808 24.664C215.752 23.752 214.444 23.296 212.884 23.296C211.468 23.296 210.256 23.752 209.248 24.664C208.24 25.552 207.64 26.764 207.448 28.3H218.428ZM244.607 20.164L232.439 49.324H228.191L232.223 39.676L224.411 20.164H228.983L234.563 35.284L240.359 20.164H244.607Z" fill="white"/>
<path d="M49.1411 9.49382C43.7041 4.01645 36.4752 1 28.7861 1C21.0971 1 13.8682 4.01645 8.43118 9.49382C2.9942 14.9712 0 22.2538 0 30C0 37.7462 2.99432 45.0287 8.43118 50.5062C13.868 55.9837 21.0971 59 28.7861 59C36.4752 59 43.7041 55.9836 49.1411 50.5062C54.5781 45.0288 57.5723 37.7462 57.5723 30C57.5723 22.2538 54.5779 14.9713 49.1411 9.49382Z" fill="#33CC95"/>
<path d="M37.8332 19.2285H25.4963C23.9693 19.2285 22.505 19.8397 21.4254 20.9273C20.3456 22.015 19.7391 23.4904 19.7391 25.0285C19.7391 26.5668 20.3456 28.0421 21.4254 29.1299C22.505 30.2175 23.9693 30.8285 25.4963 30.8285H33.7209C35.2478 30.8285 36.7122 31.4397 37.7919 32.5274C38.8716 33.6151 39.4782 35.0904 39.4782 36.6285C39.4782 38.1668 38.8716 39.6421 37.7919 40.7299C36.7122 41.8175 35.2478 42.4285 33.7209 42.4285H19.7391" stroke="white" stroke-width="2" stroke-linecap="round" stroke-linejoin="round"/>
<path d="M29.6086 12.6V49.0572" stroke="white" stroke-width="2" stroke-linecap="round" stroke-linejoin="round"/>
</svg>
